<svg width="20" height="20" viewBox="0 0 20 20" fill="none" xmlns="http://www.w3.org/2000/svg">
<path d="M17.4286 9.76136C17.4286 9.83949 17.3988 9.90645 17.3393 9.96226L13.9107 12.9254C13.8155 13.0036 13.7113 13.0203 13.5982 12.9756C13.4851 12.9254 13.4286 12.8445 13.4286 12.7329V10.8579H2.28571C2.20238 10.8579 2.13393 10.8328 2.08036 10.7826C2.02679 10.7323 2 10.6682 2 10.59V8.9829C2 8.90478 2.02679 8.8406 2.08036 8.79038C2.13393 8.74016 2.20238 8.71505 2.28571 8.71505H13.4286V6.84005C13.4286 6.72286 13.4851 6.64194 13.5982 6.5973C13.7113 6.55266 13.8155 6.56661 13.9107 6.63915L17.3393 9.56884C17.3988 9.62465 17.4286 9.68882 17.4286 9.76136Z" fill="white"/>
</svg>
