<svg width="20" height="20" viewBox="0 0 20 20" fill="none" xmlns="http://www.w3.org/2000/svg">
<path d="M17.5467 16.1608C17.9634 16.823 18.0433 17.3904 17.7867 17.8628C17.53 18.3353 17.0073 18.5715 16.2186 18.5715H3.36143C2.57274 18.5715 2.05004 18.3353 1.79335 17.8628C1.53665 17.3904 1.61663 16.823 2.0333 16.1608L7.64714 7.31037V2.85725H6.93285C6.7394 2.85725 6.57199 2.78656 6.43062 2.64519C6.28925 2.50383 6.21857 2.33642 6.21857 2.14296C6.21857 1.94951 6.28925 1.7821 6.43062 1.64073C6.57199 1.49936 6.7394 1.42868 6.93285 1.42868H12.6471C12.8406 1.42868 13.008 1.49936 13.1494 1.64073C13.2907 1.7821 13.3614 1.94951 13.3614 2.14296C13.3614 2.33642 13.2907 2.50383 13.1494 2.64519C13.008 2.78656 12.8406 2.85725 12.6471 2.85725H11.9329V7.31037L17.5467 16.1608ZM8.8525 8.0693L5.81678 12.8572H13.7632L10.7275 8.0693L10.5043 7.72332V7.31037V2.85725H9.07571V7.31037V7.72332L8.8525 8.0693Z" fill="white"/>
</svg>
