<svg width="28" height="28" viewBox="0 0 28 28" fill="none" xmlns="http://www.w3.org/2000/svg">
<path d="M2.51786 15.3961C2.51786 15.3961 2.54762 15.4556 2.60714 15.5747C2.66667 15.6937 2.84524 15.7532 3.14286 15.7532C3.44048 15.7532 3.64881 15.6342 3.76786 15.3961C3.8869 15.158 3.8869 14.9199 3.76786 14.6818C3.64881 14.4437 3.44048 14.3247 3.14286 14.3247C2.84524 14.3247 2.6369 14.4437 2.51786 14.6818C2.39881 14.9199 2.39881 15.158 2.51786 15.3961ZM19.5826 15.1059C19.5082 15.0092 19.365 14.8232 19.1529 14.5479C18.9408 14.2726 18.7865 14.0717 18.6897 13.9452C18.593 13.8187 18.4516 13.6364 18.2656 13.3983C18.0796 13.1602 17.9215 12.9631 17.7913 12.8068C17.6611 12.6506 17.5104 12.4757 17.3393 12.2823C17.1682 12.0888 17.0007 11.9065 16.8371 11.7354L15.442 13.2979C14.8244 13.9973 14.0487 14.3395 13.115 14.3247C12.1812 14.3098 11.4167 13.9452 10.8214 13.2309C10.3973 12.7175 10.1871 12.1297 10.1908 11.4675C10.1946 10.8053 10.4122 10.2212 10.8438 9.71529L12.8192 7.41618C12.6555 7.33434 12.4658 7.27295 12.25 7.23203C12.0342 7.19111 11.8575 7.16879 11.7199 7.16507C11.5822 7.16135 11.372 7.16321 11.0893 7.17065C10.8065 7.17809 10.6243 7.18181 10.5424 7.18181C9.85789 7.18181 9.27009 7.42734 8.77902 7.91842L7.01563 9.68181H5.28571V15.7532C5.32292 15.7532 5.40104 15.7514 5.52009 15.7477C5.63914 15.7439 5.72098 15.7439 5.76563 15.7477C5.81027 15.7514 5.88281 15.7588 5.98326 15.77C6.08371 15.7811 6.15997 15.7979 6.21205 15.8202C6.26414 15.8425 6.32924 15.8741 6.40737 15.9151C6.48549 15.956 6.55432 16.0062 6.61384 16.0657L9.92857 19.3247C10.7842 20.1506 11.6287 20.5635 12.4621 20.5635C13.0424 20.5635 13.5074 20.3887 13.8571 20.039C14.2813 20.1878 14.6998 20.158 15.1127 19.9497C15.5257 19.7413 15.7954 19.4251 15.9219 19.001C16.4725 19.0456 16.9449 18.882 17.3393 18.5099C17.4881 18.376 17.622 18.2067 17.7411 18.0021C17.8601 17.7975 17.9122 17.6096 17.8973 17.4385C17.9717 17.5129 18.1317 17.5501 18.3772 17.5501C18.6972 17.5501 18.9836 17.472 19.2366 17.3157C19.4896 17.1595 19.6737 16.9623 19.7891 16.7242C19.9044 16.4861 19.949 16.2201 19.923 15.9262C19.8969 15.6323 19.7835 15.3589 19.5826 15.1059ZM21.3571 15.7532H22.4286V10.039H21.3906L19.6384 8.03002C19.1473 7.46455 18.5186 7.18181 17.7522 7.18181H15.8884C15.2262 7.18181 14.683 7.43106 14.2589 7.92958L11.9263 10.6416C11.718 10.8872 11.6138 11.1662 11.6138 11.4787C11.6138 11.7912 11.7143 12.0702 11.9152 12.3157C12.2351 12.6952 12.6443 12.8887 13.1429 12.8961C13.6414 12.9035 14.0543 12.7212 14.3817 12.3492L16.5357 9.91618C16.7217 9.74505 16.9208 9.66507 17.1328 9.67623C17.3449 9.68739 17.5197 9.78783 17.6574 9.97757C17.795 10.1673 17.8266 10.3775 17.7522 10.6081C17.8713 10.7495 18.0796 10.9839 18.3772 11.3113C18.6749 11.6387 18.8981 11.8916 19.0469 12.0702C19.2626 12.3381 19.5696 12.7305 19.9676 13.2477C20.3657 13.7648 20.6057 14.0791 20.6875 14.1907C21.0744 14.6818 21.2976 15.2026 21.3571 15.7532ZM23.9464 15.3961C23.9464 15.3961 23.9762 15.4556 24.0357 15.5747C24.0952 15.6937 24.2738 15.7532 24.5714 15.7532C24.869 15.7532 25.0774 15.6342 25.1964 15.3961C25.3155 15.158 25.3155 14.9199 25.1964 14.6818C25.0774 14.4437 24.869 14.3247 24.5714 14.3247C24.2738 14.3247 24.0655 14.4437 23.9464 14.6818C23.8274 14.9199 23.8274 15.158 23.9464 15.3961ZM26.7143 9.32467V16.4675C26.7143 16.661 26.6436 16.8284 26.5022 16.9698C26.3609 17.1111 26.1935 17.1818 26 17.1818H21.1563C20.9554 17.6654 20.6503 18.0616 20.2411 18.3704C19.8318 18.6792 19.3668 18.8708 18.846 18.9452C18.6004 19.3023 18.301 19.6055 17.9475 19.8548C17.5941 20.1041 17.2128 20.2733 16.8036 20.3626C16.4911 20.757 16.1023 21.0602 15.6373 21.2722C15.1722 21.4843 14.6942 21.5754 14.2031 21.5456C13.7567 21.7986 13.2879 21.9456 12.7969 21.9865C12.3058 22.0274 11.8315 21.9753 11.3739 21.8302C10.9163 21.6852 10.481 21.4861 10.0681 21.2331C9.65513 20.9802 9.27009 20.6788 8.91295 20.3291L5.70982 17.1818H1.71429C1.52083 17.1818 1.35342 17.1111 1.21205 16.9698C1.07068 16.8284 1 16.661 1 16.4675V8.96752C1 8.77407 1.07068 8.60666 1.21205 8.46529C1.35342 8.32392 1.52083 8.25324 1.71429 8.25324H6.41295C6.51711 8.14907 6.69196 7.9705 6.9375 7.71752C7.18304 7.46455 7.35975 7.28597 7.46763 7.18181C7.57552 7.07764 7.73921 6.92883 7.95871 6.73538C8.1782 6.54193 8.36607 6.40242 8.52232 6.31685C8.67857 6.23129 8.8683 6.13642 9.09152 6.03225C9.31473 5.92809 9.54539 5.85554 9.78348 5.81462C10.0216 5.7737 10.2746 5.75324 10.5424 5.75324H11.8482C12.5848 5.75324 13.2582 5.96157 13.8683 6.37824C14.4784 5.96157 15.1518 5.75324 15.8884 5.75324H17.7522C18.0126 5.75324 18.2619 5.77556 18.5 5.8202C18.7381 5.86484 18.9483 5.91879 19.1306 5.98203C19.3129 6.04528 19.5045 6.14386 19.7054 6.27779C19.9063 6.41172 20.0718 6.52705 20.202 6.62377C20.3322 6.7205 20.4922 6.86745 20.6819 7.06462C20.8717 7.26179 21.0167 7.41804 21.1172 7.53337C21.2176 7.6487 21.3702 7.82727 21.5748 8.06908C21.7794 8.3109 21.9338 8.49133 22.0379 8.61038H26C26.1935 8.61038 26.3609 8.68106 26.5022 8.82243C26.6436 8.9638 26.7143 9.13121 26.7143 9.32467Z" fill="white"/>
</svg>
